<?xml version="1.0" encoding="UTF-8"?> <svg xmlns="http://www.w3.org/2000/svg" xmlns:xlink="http://www.w3.org/1999/xlink" xmlns:svgjs="http://svgjs.dev/svgjs" viewBox="0 0 512 512" width="300" height="300" version="1.1"><g width="100%" height="100%" transform="matrix(1,0,0,1,0,0)"><g id="Layer_13" data-name="Layer 13"><path d="M327.667,364.981l1.981-3.153c20.766-33.051,38-57.441,55.891-79.078A167.9,167.9,0,0,0,247.055,8.234C163.664,12.559,89.352,89.68,88.023,173.27a167.876,167.876,0,0,0,36.743,107.4c15.211,19.008,29.992,40.754,45.187,66.477,3.679,6.225,7.366,12.314,11.038,18.316C122.347,374.444,64,396,64,432c0,34.9,67.289,72,192,72s192-37.1,192-72C448,401.355,401.177,375.577,327.667,364.981ZM137.25,270.668a151.843,151.843,0,0,1-33.227-97.141c1.2-75.629,68.43-145.4,143.86-149.316Q252,24,256.078,24A151.837,151.837,0,0,1,373.211,272.555c-18.352,22.191-35.961,47.1-57.109,80.761L255.57,449.648C242.461,431.109,212.664,387.957,183.734,339,168.148,312.625,152.945,290.273,137.25,270.668ZM256,488c-103.719,0-176-29.512-176-56,0-18.5,37.887-41.861,110.2-51.666,31.439,50.108,59.011,87.934,59.34,88.389A8.021,8.021,0,0,0,256,472c.094,0,.188,0,.281,0a8.014,8.014,0,0,0,6.492-3.738l55.536-88.384C392.908,389.365,432,413.042,432,432,432,458.488,359.719,488,256,488Z" fill="#1671b6" fill-opacity="1" data-original-color="#000000ff" stroke="none" stroke-opacity="1"></path><path d="M265.75,229.257A39.606,39.606,0,0,0,280,232a40.047,40.047,0,0,0,40-40,76.195,76.195,0,0,0-8-33.887v0l-24.844-49.687c-2.718-5.422-11.594-5.422-14.312,0L252,150.11l-12.845-25.688c-2.718-5.422-11.594-5.422-14.312,0L200,174.113A76.195,76.195,0,0,0,192,208a39.914,39.914,0,0,0,73.75,21.257ZM280,129.887l17.688,35.375A60.11,60.11,0,0,1,304,192a24,24,0,0,1-48,0,60.081,60.081,0,0,1,6.312-26.734ZM232,232a24.027,24.027,0,0,1-24-24,60.081,60.081,0,0,1,6.312-26.734L232,145.887l11.648,23.3A75.99,75.99,0,0,0,240,192a39.817,39.817,0,0,0,12.277,28.722A23.991,23.991,0,0,1,232,232Z" fill="#1671b6" fill-opacity="1" data-original-color="#000000ff" stroke="none" stroke-opacity="1"></path><path d="M368,176A112,112,0,1,0,256,288,112.126,112.126,0,0,0,368,176Zm-208,0a96,96,0,1,1,96,96A96.107,96.107,0,0,1,160,176Z" fill="#1671b6" fill-opacity="1" data-original-color="#000000ff" stroke="none" stroke-opacity="1"></path></g></g></svg> 