<?xml version="1.0" encoding="UTF-8"?> <svg xmlns="http://www.w3.org/2000/svg" xmlns:xlink="http://www.w3.org/1999/xlink" xmlns:svgjs="http://svgjs.dev/svgjs" clip-rule="evenodd" fill-rule="evenodd" height="300" image-rendering="optimizeQuality" shape-rendering="geometricPrecision" text-rendering="geometricPrecision" viewBox="0 0 43.3492 43.3492" width="300" version="1.1"><g width="100%" height="100%" transform="matrix(1,0,0,1,0,0)"><g id="Layer_x0020_1"><g id="_407910624"><path id="_407912280" d="m8.5268 17.1795c-.1678 0-.3215-.1119-.367-.2818l-.6019-2.246c-.0261-.0975-.0124-.2012.038-.2886s.1335-.151.2309-.1771l21.434-5.7432c.2023-.0547.4114.066.4657.2689.0543.2028-.066.4113-.2689.4657l-21.0667 5.6446.405 1.5116 21.7554-5.8294c.2024-.0543.4113.0661.4657.2689.0543.2029-.0661.4114-.269.4658l-22.1225 5.9277c-.033.0088-.0661.013-.0987.0129z" fill="#1671b6" fill-opacity="1" data-original-color="#000000ff" stroke="none" stroke-opacity="1"></path><path id="_407911752" d="m33.392 14.5356c.1757.2552.2847.3237.3219.3411.1286-.1011.4576-.7714.5027-2.7571.077-3.3998-.7941-8.689-2.6301-9.7769-.4423-.262-.9179-.2417-1.4538.0623l-2.9733 2.1743zm.3288 1.1075c-.2637 0-.5971-.1531-.9606-.6841-.003-.0042-.0058-.0086-.0086-.013l-6.4245-10.263c-.1058-.169-.0631-.3909.0978-.5086l3.276-2.3958c.0111-.0081.0225-.0155.0343-.0224.8084-.4668 1.6074-.4749 2.3108-.0235 2.4476 1.5708 3.1692 8.3209 2.8697 11.4989-.1742 1.8488-.615 2.2321-.9312 2.3594-.0769.0309-.1655.0522-.2637.0521z" fill="#1671b6" fill-opacity="1" data-original-color="#000000ff" stroke="none" stroke-opacity="1"></path><path id="_407911800" d="m24.9093 36.3183c-.1932 0-.3586-.1466-.378-.3428l-1.7859-18.0884h-3.4559l-1.7859 18.0883c-.0206.209-.2059.3614-.4158.3411-.2089-.0207-.3616-.2067-.3411-.4158l1.8198-18.4311c.0193-.1946.1829-.3428.3784-.3428l4.1451-.0001c.1955 0 .3591.1483.3783.3429l1.8198 18.4311c.0206.209-.1321.3951-.341.4158-.0127.0011-.0253.0019-.0378.0018z" fill="#1671b6" fill-opacity="1" data-original-color="#000000ff" stroke="none" stroke-opacity="1"></path><path id="_407912256" d="m19.9156 17.8871c-.21 0-.3802-.1701-.3802-.3801v-3.7592c0-.21.1702-.3802.3802-.3802s.3802.1702.3802.3802v3.7592c0 .2099-.1702.3802-.3802.3801zm2.2037 0c-.2099 0-.3803-.1701-.3803-.3801l.0001-4.3497c0-.2101.1703-.3803.3802-.3803.21 0 .3802.1702.3802.3803v4.3497c0 .2099-.1702.3802-.3802.3801z" fill="#1671b6" fill-opacity="1" data-original-color="#000000ff" stroke="none" stroke-opacity="1"></path><path id="_407912160" d="m24.677 33.9618h-7.3192c-.2099 0-.3801-.1702-.3801-.3801 0-.2101.1702-.3803.3801-.3803h7.3192c.21 0 .3802.1702.3802.3803 0 .2099-.1702.3801-.3802.3801z" fill="#1671b6" fill-opacity="1" data-original-color="#000000ff" stroke="none" stroke-opacity="1"></path><path id="_407912112" d="m24.4125 31.2827h-6.7901c-.21 0-.3802-.1703-.3802-.3802 0-.2101.1702-.3803.3802-.3803h6.7901c.21 0 .3803.1703.3803.3803 0 .2099-.1703.3802-.3803.3802z" fill="#1671b6" fill-opacity="1" data-original-color="#000000ff" stroke="none" stroke-opacity="1"></path><path id="_407911104" d="m24.148 28.6036h-6.2611c-.2099 0-.3803-.1703-.3803-.3802 0-.2101.1703-.3802.3803-.3802l6.2611-.0001c.2099 0 .3801.1703.3801.3803.0001.2099-.1702.3802-.3801.3802z" fill="#1671b6" fill-opacity="1" data-original-color="#000000ff" stroke="none" stroke-opacity="1"></path><path id="_407911032" d="m23.8835 25.9243h-5.732c-.2101 0-.3803-.1701-.3803-.38 0-.21.1702-.3802.3803-.3802h5.732c.21 0 .3803.1702.3803.3802 0 .2098-.1704.3801-.3803.38z" fill="#1671b6" fill-opacity="1" data-original-color="#000000ff" stroke="none" stroke-opacity="1"></path><path id="_407911224" d="m23.6193 23.2453h-5.2035c-.2099 0-.3801-.1702-.3801-.3802 0-.2099.1702-.3801.3801-.3801l5.2035-.0001c.2099 0 .3802.1703.3802.3802 0 .21-.1703.3803-.3802.3802z" fill="#1671b6" fill-opacity="1" data-original-color="#000000ff" stroke="none" stroke-opacity="1"></path><path id="_407911200" d="m23.3545 20.5664h-4.6741c-.2099 0-.3802-.1704-.3802-.3803 0-.2101.1703-.3802.3802-.3802l4.6741-.0001c.21 0 .3802.1703.3802.3803 0 .2099-.1702.3803-.3802.3803z" fill="#1671b6" fill-opacity="1" data-original-color="#000000ff" stroke="none" stroke-opacity="1"></path><path id="_407911296" d="m33.8424 26.8071c-.2099 0-.3801-.1702-.3801-.3802v-11.1887c0-.21.1702-.3802.3801-.3802.21 0 .3802.1703.3802.3803l.0001 11.1886c0 .21-.1703.3802-.3803.3802zm0 5.5371c-.2099 0-.3801-.1702-.3801-.3801v-3.8419c0-.2098.1702-.3801.3801-.3801.21-.0001.3802.1703.3802.3802l.0001 3.8417c0 .21-.1703.3802-.3803.3802z" fill="#1671b6" fill-opacity="1" data-original-color="#000000ff" stroke="none" stroke-opacity="1"></path><path id="_407911536" d="m33.1087 26.8073c-.2576 0-.4672.2096-.4672.4673 0 .2575.2096.4673.4671.4673l1.4677-.0001c.2576 0 .4672-.2096.4672-.4672 0-.2577-.2096-.4673-.4672-.4673zm1.4676 1.6955h-1.4676c-.6772 0-1.2282-.5509-1.2282-1.2282s.551-1.2282 1.2281-1.2282h1.4677c.6771 0 1.2281.551 1.2281 1.2282s-.551 1.2282-1.2281 1.2282z" fill="#1671b6" fill-opacity="1" data-original-color="#000000ff" stroke="none" stroke-opacity="1"></path><path id="_407911176" d="m32.7569 33.6058h2.1713v-1.2616h-2.1713zm2.5515.7604h-2.9318c-.21 0-.3802-.1702-.3802-.3801v-2.0221c0-.21.1702-.3802.3802-.3802h2.9318c.21 0 .3802.1703.3802.3803v2.0219c0 .21-.1702.3802-.3802.3802z" fill="#1671b6" fill-opacity="1" data-original-color="#000000ff" stroke="none" stroke-opacity="1"></path><path id="_407911392" d="m34.7164 36.3882h-1.7477c-.21 0-.3802-.1702-.3802-.3802v-2.022c0-.21.1702-.3802.3802-.3802s.3803.1703.3803.3803v1.6415h.9871v-1.6416c0-.21.1702-.3802.3802-.3802s.3802.1703.3802.3803v2.0219c0 .2099-.1702.3802-.3801.3802z" fill="#1671b6" fill-opacity="1" data-original-color="#000000ff" stroke="none" stroke-opacity="1"></path><path id="_407911056" d="m.7604 41.1886h41.8284v-4.869h-6.0237v1.6417c0 .21-.1703.3803-.3803.3803l-4.6847-.0001c-.2099 0-.3803-.1701-.3803-.3802v-1.6417h-30.3594v4.869zm42.2086.7605h-42.5888c-.21 0-.3802-.1702-.3802-.3802v-5.6294c0-.2101.1702-.3803.3802-.3803l31.1199-.0001c.21 0 .3802.1703.3802.3804v1.6416h3.9243v-1.6416c0-.2101.1703-.3803.3802-.3803l6.7842-.0001c.21 0 .3802.1703.3802.3804v5.6294c0 .2099-.1702.3803-.3802.3802z" fill="#1671b6" fill-opacity="1" data-original-color="#000000ff" stroke="none" stroke-opacity="1"></path><path id="_407911344" d="m8.527 25.7949c-.21 0-.3802-.1702-.3802-.3802v-8.6154c0-.21.1702-.3802.3802-.3802.21-.0001.3802.1703.3802.3802v8.6153c0 .2101-.1702.3803-.3802.3803z" fill="#1671b6" fill-opacity="1" data-original-color="#000000ff" stroke="none" stroke-opacity="1"></path><path id="_407910552" d="m10.4239 31.7916c-.21 0-.3802-.1702-.3802-.3803v-5.6164h-3.0334v5.6164c0 .21-.1703.3803-.3803.3803-.2099 0-.3802-.1702-.3802-.3803v-5.9967c0-.21.1703-.3802.3802-.3802h3.7939c.21 0 .3802.1703.3802.3803v5.9966c0 .21-.1702.3803-.3802.3803z" fill="#1671b6" fill-opacity="1" data-original-color="#000000ff" stroke="none" stroke-opacity="1"></path><path id="_407910504" d="m12.658 36.3196c-.2099 0-.3801-.1701-.3801-.3801v-4.1479h-7.5017v4.1479c0 .2099-.1702.3802-.3802.3802-.21-.0001-.3802-.1702-.3802-.3802v-4.5282c0-.21.1702-.3802.3802-.3802l8.262-.0001c.21 0 .3802.1703.3802.3803v4.5282c0 .2099-.1702.3802-.3802.3801z" fill="#1671b6" fill-opacity="1" data-original-color="#000000ff" stroke="none" stroke-opacity="1"></path></g></g></g></svg> 