<?xml version="1.0" encoding="UTF-8"?> <svg xmlns="http://www.w3.org/2000/svg" xmlns:xlink="http://www.w3.org/1999/xlink" xmlns:svgjs="http://svgjs.dev/svgjs" id="Layer_1" data-name="Layer 1" viewBox="0 0 48 48" width="300" height="300" version="1.1"><g width="100%" height="100%" transform="matrix(1,0,0,1,0,0)"><title>14 momey</title><path d="M47.644,16.118,19.922.1A.75.75,0,0,0,19.2.083L.455,9.708A.751.751,0,0,0,.4,11.01l13.845,8.74a.75.75,0,0,0,.8-1.269L2.31,10.443,19.525,1.6,45.783,16.775,28.533,27l-.383-.242a.75.75,0,0,0-.8,1.269l.77.486a.749.749,0,0,0,.783.011L47.651,17.412a.749.749,0,0,0-.007-1.294Z" fill="#1671b6" fill-opacity="1" data-original-color="#000000ff" stroke="none" stroke-opacity="1"></path><path d="M23.912,17.684q.1,0,.2,0c2.906-.079,5.152-1.792,5.114-3.9a3.1,3.1,0,0,0-1.027-2.2,6,6,0,0,0-4.235-1.432c-2.905.079-5.151,1.792-5.113,3.9a3.1,3.1,0,0,0,1.026,2.2A5.911,5.911,0,0,0,23.912,17.684ZM24,11.646l.158,0a4.394,4.394,0,0,1,3,1.019,1.666,1.666,0,0,1,.564,1.144h0c.022,1.232-1.652,2.319-3.655,2.374a4.5,4.5,0,0,1-3.157-1.017,1.661,1.661,0,0,1-.563-1.145C20.323,12.788,22,11.7,24,11.646Z" fill="#1671b6" fill-opacity="1" data-original-color="#000000ff" stroke="none" stroke-opacity="1"></path><path d="M8.358,11.269a.749.749,0,0,0,.068,1.221L25.838,23.444a.749.749,0,0,0,.752.027,5.616,5.616,0,0,1,2.159-.64h.011a5.807,5.807,0,0,1,2.828.642.747.747,0,0,0,.755,0l7.193-4.262a.749.749,0,0,0,.188-1.132,1.608,1.608,0,0,1-.091-2.136A.749.749,0,0,0,39.4,14.85L21.708,4.629a.755.755,0,0,0-.683-.035,5.811,5.811,0,0,1-2.209.487,5.76,5.76,0,0,1-2.29-.393.758.758,0,0,0-.625.028L9.443,8.032a.75.75,0,0,0-.334.989,1.547,1.547,0,0,1,.156.643A2.081,2.081,0,0,1,8.358,11.269Zm2.342-2.2L16.292,6.2a7.369,7.369,0,0,0,2.565.378,7.417,7.417,0,0,0,2.42-.468L38.012,15.78a3,3,0,0,0,.084,2.536l-6.16,3.65a7.662,7.662,0,0,0-3.168-.635,6.265,6.265,0,0,0-2.483.622L10.02,11.721a3.254,3.254,0,0,0,.745-2.084A2.983,2.983,0,0,0,10.7,9.072Z" fill="#1671b6" fill-opacity="1" data-original-color="#000000ff" stroke="none" stroke-opacity="1"></path><path d="M5.962,19.279a.75.75,0,0,0,.4-1.384l-5.194-3.28a.75.75,0,0,0-.8,1.269l5.194,3.279A.744.744,0,0,0,5.962,19.279Z" fill="#1671b6" fill-opacity="1" data-original-color="#000000ff" stroke="none" stroke-opacity="1"></path><path d="M47.885,21.259A.75.75,0,0,0,46.856,21L28.5,31.871l-.353-.222a.75.75,0,1,0-.8,1.268l.74.467a.741.741,0,0,0,.4.116.75.75,0,0,0,.383-.1l18.748-11.11A.749.749,0,0,0,47.885,21.259Z" fill="#1671b6" fill-opacity="1" data-original-color="#000000ff" stroke="none" stroke-opacity="1"></path><path d="M1.169,18.8a.75.75,0,0,0-.8,1.269L2.49,21.41a.75.75,0,0,0,.8-1.269Z" fill="#1671b6" fill-opacity="1" data-original-color="#000000ff" stroke="none" stroke-opacity="1"></path><path d="M46.856,25.182,28.5,36.057l-.353-.222a.75.75,0,1,0-.8,1.268l.74.467a.742.742,0,0,0,.4.117.752.752,0,0,0,.383-.1l18.748-11.11a.75.75,0,1,0-.765-1.29Z" fill="#1671b6" fill-opacity="1" data-original-color="#000000ff" stroke="none" stroke-opacity="1"></path><path d="M13.039,48c6.33,0,13.059-1.734,13.059-4.947V26.6a.736.736,0,0,0-.066-.3c-.655-2.894-7-4.452-12.993-4.452S.7,23.406.047,26.3a.736.736,0,0,0-.066.3V43.053C-.019,46.266,6.709,48,13.039,48Zm0-1.5c-7.161,0-11.558-2.008-11.558-3.447V40.608c2.333,1.674,7.04,2.562,11.558,2.562s9.226-.888,11.559-2.562v2.445C24.6,44.492,20.2,46.5,13.039,46.5ZM24.6,32.509c0,1.439-4.4,3.447-11.559,3.447S1.481,33.948,1.481,32.509V29.181c2.333,1.674,7.04,2.562,11.558,2.562s9.226-.888,11.559-2.562ZM13.039,37.456c4.518,0,9.226-.888,11.559-2.562v3.329c0,1.439-4.4,3.447-11.559,3.447S1.481,39.662,1.481,38.223V34.894C3.814,36.568,8.521,37.456,13.039,37.456Zm0-14.108C20.2,23.348,24.6,25.356,24.6,26.8s-4.4,3.448-11.559,3.448S1.481,28.235,1.481,26.8,5.878,23.348,13.039,23.348Z" fill="#1671b6" fill-opacity="1" data-original-color="#000000ff" stroke="none" stroke-opacity="1"></path></g></svg> 